<svg width="50" height="49" viewBox="0 0 50 49" fill="none" xmlns="http://www.w3.org/2000/svg">
<path d="M0.15625 10.8872C0.471307 9.53431 1.2458 8.32636 2.35288 7.46119C3.45996 6.59602 4.83401 6.12491 6.25 6.125H43.75C45.166 6.12491 46.54 6.59602 47.6471 7.46119C48.7542 8.32636 49.5287 9.53431 49.8438 10.8872L25 25.7679L0.15625 10.8872ZM0 14.3846V36.1406L18.1344 25.2442L0 14.3846ZM21.1281 27.0419L0.596875 39.3746C1.10415 40.4228 1.90477 41.3083 2.90557 41.928C3.90636 42.5477 5.06617 42.8761 6.25 42.875H43.75C44.9336 42.8753 46.093 42.5461 47.0932 41.9259C48.0935 41.3057 48.8934 40.4198 49.4 39.3715L28.8687 27.0388L25 29.3571L21.1281 27.0388V27.0419ZM31.8656 25.2473L50 36.1406V14.3846L31.8656 25.2442V25.2473Z" fill="url(#paint0_linear_3_20)"/>
<defs>
<linearGradient id="paint0_linear_3_20" x1="25" y1="6.125" x2="25" y2="42.875" gradientUnits="userSpaceOnUse">
<stop stop-color="#4AA1FA"/>
<stop offset="0.9999" stop-color="#E649F5" stop-opacity="0.97"/>
<stop offset="1" stop-opacity="0"/>
<stop offset="1" stop-color="#E649F5" stop-opacity="0.97"/>
</linearGradient>
</defs>
</svg>
