<svg width="55" height="49" viewBox="0 0 55 49" fill="none" xmlns="http://www.w3.org/2000/svg">
<path d="M27.5 0C12.3062 0 0 10.9637 0 24.5C0 35.3413 7.87187 44.4981 18.8031 47.7444C20.1781 47.9588 20.6938 47.2238 20.6938 46.5806C20.6938 45.9987 20.6594 44.0694 20.6594 42.0175C13.75 43.1506 11.9625 40.5169 11.4125 39.1387C11.1031 38.4344 9.7625 36.26 8.59375 35.6781C7.63125 35.2188 6.25625 34.0856 8.55937 34.055C10.725 34.0244 12.2719 35.8312 12.7875 36.5662C15.2625 40.2719 19.2156 39.2306 20.7969 38.5875C21.0375 36.995 21.7594 35.9231 22.55 35.3106C16.4312 34.6981 10.0375 32.585 10.0375 23.2137C10.0375 20.5494 11.1031 18.3444 12.8562 16.6294C12.5813 16.0169 11.6187 13.5056 13.1312 10.1369C13.1312 10.1369 15.4344 9.49375 20.6938 12.6481C22.8937 12.0969 25.2313 11.8212 27.5688 11.8212C29.9063 11.8212 32.2438 12.0969 34.4438 12.6481C39.7031 9.46313 42.0063 10.1369 42.0063 10.1369C43.5187 13.5056 42.5563 16.0169 42.2812 16.6294C44.0344 18.3444 45.1 20.5187 45.1 23.2137C45.1 32.6156 38.6719 34.6981 32.5531 35.3106C33.55 36.0762 34.4094 37.5462 34.4094 39.8431C34.4094 43.12 34.375 45.7537 34.375 46.5806C34.375 47.2238 34.8906 47.9894 36.2656 47.7444C41.7252 46.1028 46.4693 42.9771 49.8301 38.8073C53.1909 34.6374 54.999 29.6335 55 24.5C55 10.9637 42.6937 0 27.5 0Z" fill="url(#paint0_linear_3_16)"/>
<defs>
<linearGradient id="paint0_linear_3_16" x1="27.5" y1="0" x2="27.5" y2="47.7912" gradientUnits="userSpaceOnUse">
<stop stop-color="#4AA1FA"/>
<stop offset="0.473958" stop-color="#9477F8" stop-opacity="0.985781"/>
<stop offset="1" stop-color="#E649F5" stop-opacity="0.97"/>
</linearGradient>
</defs>
</svg>
