<svg width="55" height="49" viewBox="0 0 55 49" fill="none" xmlns="http://www.w3.org/2000/svg">
<path d="M0 3.50963C0 1.57106 1.80812 0 4.03906 0H50.9609C53.1919 0 55 1.57106 55 3.50963V45.4904C55 47.4289 53.1919 49 50.9609 49H4.03906C1.80812 49 0 47.4289 0 45.4904V3.50963ZM16.9916 41.0191V18.8926H8.73812V41.0191H16.9916ZM12.8666 15.8699C15.7438 15.8699 17.5347 14.1733 17.5347 12.0479C17.4831 9.87656 15.7472 8.22587 12.9216 8.22587C10.0959 8.22587 8.25 9.87963 8.25 12.0479C8.25 14.1733 10.0409 15.8699 12.8116 15.8699H12.8666ZM29.7378 41.0191V28.6619C29.7378 28.0004 29.7928 27.3389 30.0128 26.8673C30.6075 25.5474 31.9653 24.1784 34.2478 24.1784C37.235 24.1784 38.4278 26.2058 38.4278 29.1826V41.0191H46.6813V28.3281C46.6813 21.5294 42.6113 18.3689 37.18 18.3689C32.8006 18.3689 30.8378 20.5126 29.7378 22.0224V22.099H29.6828C29.7011 22.0734 29.7194 22.0479 29.7378 22.0224V18.8926H21.4878C21.5909 20.9689 21.4878 41.0191 21.4878 41.0191H29.7378Z" fill="url(#paint0_linear_3_18)"/>
<defs>
<linearGradient id="paint0_linear_3_18" x1="27.5" y1="0" x2="27.5" y2="49" gradientUnits="userSpaceOnUse">
<stop stop-color="#4AA1FA"/>
<stop offset="1" stop-color="#E649F5" stop-opacity="0.97"/>
</linearGradient>
</defs>
</svg>
